<svg width="406" height="406" viewBox="0 0 406 406" fill="none" xmlns="http://www.w3.org/2000/svg">
<path d="M203 0C315.114 0 406 90.8862 406 203C406 315.114 315.114 406 203 406C90.8862 406 0 315.114 0 203C0 90.8862 90.8862 0 203 0ZM232.5 314C223.94 314 217 320.716 217 329C217 337.284 223.94 344 232.5 344C241.06 344 248 337.284 248 329C248 320.716 241.06 314 232.5 314ZM232.5 273C223.94 273 217 279.716 217 288C217 296.284 223.94 303 232.5 303C241.06 303 248 296.284 248 288C248 279.716 241.06 273 232.5 273ZM271.5 273C262.94 273 256 279.716 256 288C256 296.284 262.94 303 271.5 303C280.06 303 287 296.284 287 288C287 279.716 280.06 273 271.5 273ZM191.5 241C185.149 241 180 245.701 180 251.5C180 257.299 185.149 262 191.5 262C197.851 262 203 257.299 203 251.5C203 245.701 197.851 241 191.5 241ZM232.5 232C223.94 232 217 238.716 217 247C217 255.284 223.94 262 232.5 262C241.06 262 248 255.284 248 247C248 238.716 241.06 232 232.5 232ZM271.5 232C262.94 232 256 238.716 256 247C256 255.284 262.94 262 271.5 262C280.06 262 287 255.284 287 247C287 238.716 280.06 232 271.5 232ZM315.5 232C306.94 232 300 238.716 300 247C300 255.284 306.94 262 315.5 262C324.06 262 331 255.284 331 247C331 238.716 324.06 232 315.5 232ZM125.5 243C120.806 243 117 246.806 117 251.5C117 256.194 120.806 260 125.5 260C130.194 260 134 256.194 134 251.5C134 246.806 130.194 243 125.5 243ZM159.5 241C154.253 241 150 245.253 150 250.5C150 255.747 154.253 260 159.5 260C164.747 260 169 255.747 169 250.5C169 245.253 164.747 241 159.5 241ZM98.5 243C94.3579 243 91 246.358 91 250.5C91 254.642 94.3579 258 98.5 258C102.642 258 106 254.642 106 250.5C106 246.358 102.642 243 98.5 243ZM73 243C69.6863 243 67 245.686 67 249C67 252.314 69.6863 255 73 255C76.3137 255 79 252.314 79 249C79 245.686 76.3137 243 73 243ZM49.5 243C46.4624 243 44 245.462 44 248.5C44 251.538 46.4624 254 49.5 254C52.5376 254 55 251.538 55 248.5C55 245.462 52.5376 243 49.5 243ZM274.5 192C265.94 192 259 198.716 259 207C259 215.284 265.94 222 274.5 222C283.06 222 290 215.284 290 207C290 198.716 283.06 192 274.5 192ZM315.5 192C306.94 192 300 198.716 300 207C300 215.284 306.94 222 315.5 222C324.06 222 331 215.284 331 207C331 198.716 324.06 192 315.5 192ZM357.5 192C348.94 192 342 198.716 342 207C342 215.284 348.94 222 357.5 222C366.06 222 373 215.284 373 207C373 198.716 366.06 192 357.5 192ZM232.5 191C223.94 191 217 197.716 217 206C217 214.284 223.94 221 232.5 221C241.06 221 248 214.284 248 206C248 197.716 241.06 191 232.5 191ZM191.5 198C185.149 198 180 202.701 180 208.5C180 214.299 185.149 219 191.5 219C197.851 219 203 214.299 203 208.5C203 202.701 197.851 198 191.5 198ZM124.5 201C119.806 201 116 204.806 116 209.5C116 214.194 119.806 218 124.5 218C129.194 218 133 214.194 133 209.5C133 204.806 129.194 201 124.5 201ZM158.5 199C153.253 199 149 203.253 149 208.5C149 213.747 153.253 218 158.5 218C163.747 218 168 213.747 168 208.5C168 203.253 163.747 199 158.5 199ZM97.5 201C93.3579 201 90 204.358 90 208.5C90 212.642 93.3579 216 97.5 216C101.642 216 105 212.642 105 208.5C105 204.358 101.642 201 97.5 201ZM72 201C68.6863 201 66 203.686 66 207C66 210.314 68.6863 213 72 213C75.3137 213 78 210.314 78 207C78 203.686 75.3137 201 72 201ZM48.5 201C45.4624 201 43 203.462 43 206.5C43 209.538 45.4624 212 48.5 212C51.5376 212 54 209.538 54 206.5C54 203.462 51.5376 201 48.5 201ZM232.5 150C223.94 150 217 156.716 217 165C217 173.284 223.94 180 232.5 180C241.06 180 248 173.284 248 165C248 156.716 241.06 150 232.5 150ZM271.5 150C262.94 150 256 156.716 256 165C256 173.284 262.94 180 271.5 180C280.06 180 287 173.284 287 165C287 156.716 280.06 150 271.5 150ZM315.5 150C306.94 150 300 156.716 300 165C300 173.284 306.94 180 315.5 180C324.06 180 331 173.284 331 165C331 156.716 324.06 150 315.5 150ZM191.977 155.012C191.819 155.005 191.66 155 191.5 155C185.701 155 181 159.701 181 165.5C181 171.299 185.701 176 191.5 176C191.66 176 191.819 175.994 191.977 175.987C192.15 175.994 192.325 176 192.5 176C198.851 176 204 171.299 204 165.5C204 159.701 198.851 155 192.5 155C192.325 155 192.15 155.005 191.977 155.012ZM125.5 158C120.806 158 117 161.806 117 166.5C117 171.194 120.806 175 125.5 175C130.194 175 134 171.194 134 166.5C134 161.806 130.194 158 125.5 158ZM159.5 156C154.253 156 150 160.253 150 165.5C150 170.747 154.253 175 159.5 175C164.747 175 169 170.747 169 165.5C169 160.253 164.747 156 159.5 156ZM98.5 158C94.3579 158 91 161.358 91 165.5C91 169.642 94.3579 173 98.5 173C102.642 173 106 169.642 106 165.5C106 161.358 102.642 158 98.5 158ZM73 158C69.6863 158 67 160.686 67 164C67 167.314 69.6863 170 73 170C76.3137 170 79 167.314 79 164C79 160.686 76.3137 158 73 158ZM49.5 158C46.4624 158 44 160.462 44 163.5C44 166.538 46.4624 169 49.5 169C52.5376 169 55 166.538 55 163.5C55 160.462 52.5376 158 49.5 158ZM232.5 109C223.94 109 217 115.716 217 124C217 132.284 223.94 139 232.5 139C241.06 139 248 132.284 248 124C248 115.716 241.06 109 232.5 109ZM271.5 109C262.94 109 256 115.716 256 124C256 132.284 262.94 139 271.5 139C280.06 139 287 132.284 287 124C287 115.716 280.06 109 271.5 109ZM232.5 68C223.94 68 217 74.7157 217 83C217 91.2843 223.94 98 232.5 98C241.06 98 248 91.2843 248 83C248 74.7157 241.06 68 232.5 68Z" fill="white"/>
</svg>
